# xmcd CD database file
#
# Track frame offsets:
#	150
#	10273
#	25112
#	39002
#	55466
#	68344
#	84860
#	97928
#	116607
#	134038
#	151836
#	170166
#
# Disc length: 2508 seconds
#
# Revision: 0
# Processed by: cddbd v1.5PL3 Copyright (c) Steve Scherf et al.
# Submitted via: CDex 1.50beta10
#
DISCID=8a09ca0c
DTITLE=Trainrobbers - Rough and Ready
DYEAR=1992
DGENRE=Country
TTITLE0=Trainrobbers Theme
TTITLE1=Checkout Time At Eleven
TTITLE2=I Am The Man
TTITLE3=Rawhide
TTITLE4=No News Is Good News
TTITLE5=Rough and Ready
TTITLE6=Stand By Your Man
TTITLE7=Folsom Prison Blues
TTITLE8=Hey Good Lookin'
TTITLE9=Look At That Cadillac
TTITLE10=Bar That She Don't Know
TTITLE11=King Bee
EXTD=YEAR: 1992
EXTT0=
EXTT1=
EXTT2=
EXTT3=
EXTT4=
EXTT5=
EXTT6=
EXTT7=
EXTT8=
EXTT9=
EXTT10=
EXTT11=
PLAYORDER=
